<?xml version="1.0" encoding="UTF-8"?>
<svg width="999px" height="661px" viewBox="0 0 999 661" version="1.1" xmlns="http://www.w3.org/2000/svg" xmlns:xlink="http://www.w3.org/1999/xlink">
    <title>HAN</title>
    <defs>
        <polygon id="path-1" points="0 661.57 998.07 661.57 998.07 1.55 0 1.55"></polygon>
        <polygon id="path-3" points="0 661.57 998.07 661.57 998.07 1.55 0 1.55"></polygon>
    </defs>
    <g id="Page-1" stroke="none" stroke-width="1" fill="none" fill-rule="evenodd">
        <g id="HAN" transform="translate(0.000000, -168.000000)">
            <g transform="translate(0.000000, 166.000000)">
                <path d="M204.655,554.56 L267.25,554.56 L267.25,545.195 L204.655,545.195 L204.655,554.56 Z M45.365,536.325 L45.365,497.12 L18.825,497.12 L18.825,536.325 L3.925,536.325 L3.925,447.92 L18.825,447.92 L18.825,483.755 L45.365,483.755 L45.365,447.92 L60.255,447.92 L60.255,536.325 L45.365,536.325 Z M179.355,536.325 L154.2,473.89 L153.825,473.89 L154.075,536.325 L140.55,536.325 L140.55,447.92 L157.7,447.92 L182.61,510.73 L182.99,510.73 L182.86,447.92 L195.88,447.92 L195.88,536.325 L179.355,536.325 Z M92.44,502.265 L101.26,466.975 L102.15,466.975 L109.54,496.54 L92.44,502.265 L92.44,502.265 Z M111.025,447.92 L92.385,447.92 L77.555,507.25 L65.115,511.415 L69.015,523.01 L74.035,521.33 L70.285,536.33 L83.925,536.33 L88.925,516.34 L112.515,508.44 L119.485,536.33 L133.125,536.33 L111.025,447.92 Z" id="Shape" fill="#FFFFFF" fill-rule="nonzero"></path>
                <g id="Group" transform="translate(0.000000, 0.880000)">
                    <path d="M332.35,517.215 C331.35,521.295 329.72,524.855 327.465,527.89 C325.185559,530.949059 322.200919,533.412245 318.765,535.07 C315.215,536.82 310.895,537.69 305.815,537.69 C300.715,537.69 296.415,536.82 292.915,535.07 C289.514811,533.410378 286.571245,530.945679 284.34,527.89 C282.13,524.855 280.54,521.29 279.585,517.215 C278.600673,512.915215 278.117456,508.515928 278.145,504.105 L278.145,447.035 L293.165,447.035 L293.165,502.73 C293.165,505.48 293.355,508.12 293.73,510.655 C294.105,513.205 294.77,515.425 295.73,517.34 C296.69,519.255 298.005,520.775 299.68,521.895 C301.345,523.02 303.475,523.585 306.06,523.585 C308.645,523.585 310.775,523.02 312.445,521.895 C314.115,520.775 315.425,519.255 316.39,517.345 C317.345,515.425 318.015,513.2 318.39,510.655 C318.765,508.12 318.955,505.475 318.955,502.73 L318.955,447.035 L333.85,447.035 L333.85,504.105 C333.85,508.77 333.35,513.14 332.35,517.215 L332.35,517.215 Z M387.925,535.45 L362.765,473.01 L362.39,473.01 L362.64,535.445 L349.125,535.445 L349.125,447.035 L366.275,447.035 L391.18,509.845 L391.56,509.845 L391.43,447.035 L404.455,447.035 L404.455,535.445 L387.925,535.45 Z" id="Shape" fill="#FFFFFE" fill-rule="nonzero"></path>
                    <g id="Clipped">
                        <mask id="mask-2" fill="white">
                            <use xlink:href="#path-1"></use>
                        </mask>
                        <g id="a"></g>
                        <path d="M420.41,535.45 L435.435,535.45 L435.435,447.04 L420.41,447.04 L420.41,535.45 Z M484.89,535.45 L465.865,535.45 L444.21,447.035 L460.98,447.035 L475.755,517.965 L476.13,517.965 L490.9,447.035 L506.925,447.035 L484.89,535.45 Z M515.71,535.45 L515.71,447.03 L555.39,447.03 L555.39,460.27 L530.105,460.27 L530.105,483.745 L553.515,483.745 L553.515,495.98 L530.105,495.98 L530.105,522.08 L556.645,522.08 L556.645,535.44 L515.71,535.45 Z M603.94,473.01 C603.94,470.345 603.56,468.14 602.81,466.39 C602.170691,464.802896 601.162942,463.390676 599.87,462.27 C598.655,461.27 597.305,460.57 595.8,460.15 C594.3,459.735 592.8,459.525 591.295,459.525 L582.78,459.525 L582.78,486.745 L591.295,486.745 C594.965,486.745 597.995,485.6 600.37,483.31 C602.75,481.025 603.94,477.59 603.94,473.01 L603.94,473.01 Z M604.94,535.445 L591.17,497.735 L582.78,497.735 L582.78,535.445 L568.26,535.445 L568.26,447.04 L593.545,447.04 C597.215,447.04 600.595,447.52 603.69,448.475 C606.654054,449.364024 609.374088,450.922484 611.64,453.03 C613.845,455.115 615.58,457.735 616.83,460.895 C618.08,464.065 618.71,467.85 618.71,472.26 C618.71,475.675 618.27,478.695 617.395,481.31 C616.52,483.94 615.41,486.16 614.075,487.995 C612.856281,489.713637 611.355009,491.213219 609.635,492.43 C608.174434,493.472501 606.543369,494.252503 604.815,494.735 L620.715,535.445 L604.94,535.445 L604.94,535.445 Z M667.78,464.145 C664.525,460.235 660.43,458.275 655.51,458.275 C654.09,458.275 652.71,458.505 651.38,458.96 C650.04,459.42 648.83,460.15 647.75,461.15 C646.611612,462.227976 645.734326,463.551599 645.185,465.02 C644.56,466.6 644.24,468.47 644.24,470.64 C644.24,474.385 645.37,477.275 647.625,479.315 C649.875,481.355 652.84,483.295 656.515,485.125 C658.68,486.205 660.895,487.455 663.145,488.87 C665.395,490.285 667.445,491.99 669.28,493.99 C671.115,495.99 672.615,498.36 673.79,501.105 C674.955,503.855 675.54,507.1 675.54,510.845 C675.54,515.175 674.855,519.005 673.475,522.335 C672.215102,525.482362 670.342142,528.347889 667.965,530.765 C665.67,533.055 662.98,534.78 659.89,535.945 C656.770079,537.116719 653.462659,537.709751 650.13,537.695 C645.424905,537.742345 640.766277,536.761132 636.48,534.82 C632.31,532.905 628.975,530.495 626.47,527.575 L634.605,516.59 C636.525,518.92 638.84,520.75 641.555,522.08 C644.265,523.42 647.04,524.08 649.875,524.08 C653.05,524.08 655.675,523 657.765,520.84 C659.85,518.67 660.895,515.635 660.895,511.72 C660.895,507.895 659.64,504.85 657.14,502.605 C654.635,500.355 651.46,498.28 647.625,496.355 C645.205,495.195 642.93,493.905 640.8,492.49 C638.686926,491.088487 636.790187,489.385465 635.17,487.435 C633.486997,485.387213 632.172461,483.062667 631.285,480.565 C630.325,477.94 629.845,474.8 629.845,471.135 C629.845,466.56 630.58,462.625 632.04,459.335 C633.365212,456.235895 635.325758,453.449228 637.795,451.155 C640.132282,449.022573 642.879951,447.389283 645.87,446.355 C648.807634,445.325579 651.897226,444.796562 655.01,444.79 C659.515,444.79 663.54,445.52 667.09,446.975 C670.64,448.435 673.62,450.575 676.04,453.405 L667.78,464.145 L667.78,464.145 Z M687.015,535.45 L702.04,535.45 L702.04,447.04 L687.015,447.04 L687.015,535.45 Z M741.96,459.775 L741.96,535.445 L727.185,535.445 L727.185,459.775 L710.535,459.775 L710.535,447.035 L758.61,447.035 L758.61,459.775 L741.96,459.775 Z M799.715,501.605 L799.715,535.45 L784.945,535.45 L784.945,501.605 L762.79,447.035 L779.065,447.035 L792.33,486.5 L792.705,486.25 L806.23,447.035 L822.125,447.035 L799.715,501.605 Z M48.32,615 C48.32,610.5 47.965,606.275 47.255,602.325 C46.545,598.37 45.505,594.955 44.125,592.08 C42.75,589.21 41.04,586.945 38.995,585.28 C36.945,583.615 34.595,582.78 31.92,582.78 C29.17,582.78 26.77,583.615 24.72,585.28 C22.675,586.945 20.97,589.21 19.59,592.08 C18.215,594.955 17.19,598.37 16.525,602.325 C15.855,606.275 15.525,610.5 15.525,614.995 C15.525,619.495 15.855,623.715 16.525,627.67 C17.19,631.625 18.215,635.06 19.59,637.97 C20.97,640.885 22.675,643.175 24.72,644.84 C26.77,646.505 29.17,647.34 31.92,647.34 C34.67,647.34 37.07,646.505 39.12,644.84 C41.16,643.175 42.875,640.89 44.25,637.975 C45.63,635.06 46.65,631.625 47.315,627.67 C47.985,623.72 48.32,619.495 48.32,614.995 L48.32,615 Z M63.84,614.995 C63.84,621.99 63.11,628.34 61.65,634.04 C60.195,639.74 58.085,644.635 55.33,648.71 C52.575,652.79 49.215,655.95 45.25,658.2 C41.29,660.45 36.84,661.57 31.92,661.57 C26.915,661.57 22.445,660.45 18.525,658.2 C14.6,655.95 11.265,652.79 8.51,648.71 C5.76,644.635 3.65,639.74 2.19,634.04 C0.73,628.34 3.88578059e-16,621.99 3.88578059e-16,614.995 C3.88578059e-16,608.005 0.71,601.68 2.125,596.015 C3.545,590.355 5.635,585.485 8.385,581.405 C11.14,577.33 14.5,574.185 18.465,571.98 C22.425,569.775 26.915,568.67 31.92,568.67 C36.84,568.67 41.29,569.77 45.25,571.98 C49.215,574.18 52.575,577.33 55.33,581.405 C58.08,585.485 60.195,590.355 61.65,596.015 C63.11,601.68 63.84,608.005 63.84,614.995 L63.84,614.995 Z M91.505,584.4 L91.505,608.63 L114.29,608.63 L114.29,621.365 L91.63,621.365 L91.63,659.325 L76.48,659.325 L76.48,570.92 L116.165,570.92 L116.165,584.405 L91.505,584.4 Z M178.38,585.03 L177.88,585.03 L168.24,628.855 L187.77,628.855 L178.38,585.03 Z M194.03,659.33 L189.645,640.595 L166.365,640.595 L161.855,659.325 L146.835,659.325 L168.865,570.92 L188.02,570.92 L209.675,659.325 L194.025,659.325 L194.03,659.33 Z M253.7,597.2 C253.7,592.48 252.575,589.045 250.325,586.885 C248.07,584.735 245.19,583.655 241.685,583.655 L233.175,583.655 L233.175,611.625 L241.685,611.625 C245.19,611.625 248.07,610.405 250.325,607.955 C252.575,605.515 253.7,601.93 253.7,597.205 L253.7,597.2 Z M267.85,597.015 C267.85,601.51 267.165,605.445 265.79,608.815 C264.415,612.185 262.61,614.995 260.36,617.245 C258.12,619.495 255.54,621.16 252.63,622.24 C249.758441,623.316182 246.716597,623.866628 243.65,623.865 L233.175,623.865 L233.175,659.325 L218.4,659.325 L218.4,570.92 L242.87,570.92 C245.7,570.92 248.615,571.335 251.61,572.165 C254.61,572.995 257.29,574.435 259.66,576.475 C262.035,578.515 263.995,581.2 265.53,584.525 C267.07,587.855 267.84,592.025 267.84,597.015 L267.85,597.015 Z M313.34,597.2 C313.34,592.48 312.21,589.045 309.96,586.885 C307.705,584.735 304.825,583.655 301.32,583.655 L292.8,583.655 L292.8,611.625 L301.315,611.625 C304.815,611.625 307.7,610.405 309.955,607.955 C312.205,605.515 313.335,601.93 313.335,597.205 L313.34,597.2 Z M327.48,597.015 C327.48,601.51 326.795,605.445 325.42,608.815 C324.05,612.185 322.24,614.995 319.995,617.245 C317.75,619.495 315.175,621.16 312.26,622.24 C309.389956,623.315381 306.349897,623.86581 303.285,623.865 L292.8,623.865 L292.8,659.325 L278.03,659.325 L278.03,570.92 L302.505,570.92 C305.335,570.92 308.255,571.335 311.245,572.165 C314.245,572.995 316.925,574.435 319.3,576.475 C321.67,578.515 323.625,581.2 325.17,584.525 C326.71,587.855 327.48,592.025 327.48,597.015 L327.48,597.015 Z M337.675,659.325 L337.675,570.92 L352.825,570.92 L352.825,645.465 L377.225,645.465 L377.225,659.325 L337.675,659.325 Z M386.18,659.325 L401.205,659.325 L401.205,570.92 L386.18,570.92 L386.18,659.325 Z M417.16,659.325 L417.16,570.92 L456.845,570.92 L456.845,584.155 L431.555,584.155 L431.555,607.625 L454.965,607.625 L454.965,619.87 L431.555,619.87 L431.555,645.965 L458.095,645.965 L458.095,659.325 L417.16,659.325 Z M511.65,615.25 C511.65,610 511.17,605.425 510.21,601.51 C509.245,597.6 507.895,594.355 506.14,591.77 C504.39,589.19 502.3,587.255 499.88,585.965 C497.453326,584.674718 494.743301,584.009671 491.995,584.03 L484.86,584.03 L484.86,646.215 L491.995,646.215 C494.83,646.215 497.46,645.565 499.88,644.28 C502.3,642.985 504.39,641.055 506.14,638.475 C507.89,635.89 509.245,632.665 510.21,628.795 C511.17,624.92 511.65,620.41 511.65,615.245 L511.65,615.25 Z M526.67,615.245 C526.67,629.23 523.73,640.075 517.845,647.775 C511.96,655.475 503.3,659.325 491.87,659.325 L469.71,659.325 L469.71,570.915 L492,570.915 C503.35,570.915 511.965,574.815 517.85,582.59 C523.735,590.375 526.675,601.26 526.675,615.245 L526.67,615.245 Z M602.65,588.025 C599.4,584.115 595.305,582.155 590.385,582.155 C588.965,582.155 587.585,582.385 586.255,582.84 C584.92,583.3 583.705,584.025 582.625,585.03 C581.486612,586.107976 580.609326,587.431599 580.06,588.9 C579.43,590.48 579.12,592.35 579.12,594.52 C579.12,598.265 580.245,601.16 582.5,603.195 C584.75,605.235 587.71,607.17 591.385,609 C593.555,610.085 595.765,611.335 598.02,612.75 C600.275,614.165 602.32,615.87 604.155,617.87 C605.99,619.87 607.49,622.235 608.665,624.985 C609.83,627.735 610.415,630.98 610.415,634.73 C610.415,639.055 609.725,642.885 608.35,646.215 C607.091825,649.362069 605.220556,652.227609 602.845,654.645 C600.545,656.935 597.855,658.66 594.765,659.825 C591.643418,660.996993 588.334309,661.590023 585,661.575 C580.298223,661.62137 575.643061,660.640168 571.36,658.7 C567.185,656.785 563.845,654.375 561.345,651.46 L569.48,640.47 C571.374045,642.780662 573.744745,644.65505 576.43,645.965 C579.14,647.3 581.915,647.965 584.755,647.965 C587.92,647.965 590.555,646.88 592.635,644.715 C594.72,642.55 595.765,639.515 595.765,635.6 C595.765,631.775 594.515,628.735 592.015,626.485 C589.51,624.235 586.335,622.16 582.5,620.235 C580.137916,619.106896 577.857383,617.815429 575.675,616.37 C573.560989,614.967799 571.662694,613.264891 570.04,611.315 C568.359941,609.26604 567.04723,606.941729 566.16,604.445 C565.205,601.82 564.72,598.68 564.72,595.015 C564.72,590.44 565.45,586.51 566.915,583.215 C568.239514,580.116959 570.200204,577.33179 572.67,575.04 C575.005123,572.902283 577.753225,571.265333 580.745,570.23 C583.75,569.19 586.795,568.67 589.885,568.67 C594.39,568.67 598.415,569.4 601.965,570.855 C605.51,572.315 608.49,574.455 610.915,577.29 L602.655,588.025 L602.65,588.025 Z M665.13,658.325 C661.5,660.49 656.93,661.575 651.42,661.575 C646.415,661.575 641.885,660.405 637.84,658.075 C633.79,655.75 630.37,652.52 627.575,648.4 C624.775,644.28 622.61,639.39 621.065,633.73 C619.52,628.065 618.75,621.865 618.75,615.12 C618.75,608.38 619.52,602.16 621.065,596.455 C622.61,590.755 624.8,585.84 627.64,581.72 C630.475,577.595 633.915,574.395 637.965,572.105 C642.015,569.815 646.5,568.67 651.42,568.67 C656.51,568.67 660.98,569.605 664.82,571.48 C668.595794,573.300549 671.830819,576.075397 674.205,579.53 L665.565,590.025 C662.145,585.11 657.72,582.655 652.3,582.655 C649.295,582.655 646.665,583.51 644.41,585.215 C642.16,586.92 640.28,589.23 638.78,592.145 C637.28,595.06 636.15,598.495 635.4,602.445 C634.65,606.4 634.275,610.625 634.275,615.12 C634.275,619.535 634.65,623.72 635.4,627.67 C636.15,631.62 637.28,635.06 638.78,637.97 C640.28,640.89 642.18,643.195 644.475,644.905 C646.77,646.61 649.46,647.465 652.55,647.465 C655.47,647.465 657.99,646.715 660.125,645.215 C662.25,643.715 664.025,641.885 665.445,639.72 L674.08,649.835 C671.773705,653.302562 668.714319,656.204707 665.13,658.325 L665.13,658.325 Z M683.555,659.325 L698.575,659.325 L698.575,570.92 L683.555,570.92 L683.555,659.325 Z M714.535,659.325 L714.535,570.92 L754.22,570.92 L754.22,584.155 L728.93,584.155 L728.93,607.625 L752.34,607.625 L752.34,619.87 L728.93,619.87 L728.93,645.965 L755.47,645.965 L755.47,659.325 L714.535,659.325 Z M805.895,659.325 L780.73,596.89 L780.355,596.89 L780.605,659.325 L767.09,659.325 L767.09,570.92 L784.24,570.92 L809.145,633.725 L809.525,633.725 L809.4,570.92 L822.42,570.92 L822.42,659.325 L805.895,659.325 Z M881.29,658.325 C877.66,660.49 873.09,661.575 867.585,661.575 C862.575,661.575 858.045,660.405 854,658.075 C849.95,655.75 846.53,652.52 843.735,648.4 C840.935,644.28 838.77,639.39 837.225,633.73 C835.685,628.065 834.91,621.865 834.91,615.12 C834.91,608.38 835.685,602.16 837.225,596.455 C838.77,590.755 840.96,585.84 843.8,581.72 C846.635,577.595 850.08,574.395 854.125,572.105 C858.175,569.815 862.66,568.67 867.585,568.67 C872.675,568.67 877.135,569.605 880.98,571.48 C884.755156,573.301524 887.989952,576.076176 890.365,579.53 L881.725,590.025 C878.305,585.11 873.88,582.655 868.46,582.655 C865.46,582.655 862.825,583.51 860.575,585.215 C858.32,586.92 856.44,589.23 854.94,592.145 C853.44,595.06 852.31,598.495 851.56,602.445 C850.81,606.4 850.43,610.625 850.43,615.12 C850.43,619.535 850.805,623.72 851.56,627.67 C852.31,631.62 853.44,635.06 854.94,637.97 C856.44,640.89 858.34,643.195 860.635,644.905 C862.93,646.61 865.62,647.465 868.71,647.465 C871.63,647.465 874.155,646.715 876.28,645.215 C878.41,643.715 880.18,641.885 881.605,639.72 L890.24,649.835 C887.933705,653.302562 884.874319,656.204707 881.29,658.325 L881.29,658.325 Z M899.73,659.325 L899.73,570.92 L939.41,570.92 L939.41,584.155 L914.125,584.155 L914.125,607.625 L937.53,607.625 L937.53,619.87 L914.125,619.87 L914.125,645.965 L940.665,645.965 L940.665,659.325 L899.73,659.325 Z M989.805,588.025 C986.555,584.115 982.465,582.155 977.54,582.155 C976.12,582.155 974.74,582.385 973.41,582.84 C972.07,583.3 970.86,584.025 969.78,585.03 C968.6398,586.107455 967.760778,587.43112 967.21,588.9 C966.585,590.48 966.275,592.35 966.275,594.52 C966.275,598.265 967.4,601.16 969.65,603.195 C971.905,605.235 974.87,607.17 978.54,609 C980.71,610.085 982.925,611.335 985.175,612.75 C987.425,614.165 989.475,615.87 991.31,617.87 C993.145,619.87 994.645,622.235 995.815,624.985 C996.98,627.735 997.57,630.98 997.57,634.73 C997.57,639.055 996.88,642.885 995.505,646.215 C994.24641,649.363043 992.37329,652.228813 989.995,654.645 C987.7,656.935 985.01,658.66 981.92,659.825 C978.798507,660.997318 975.489338,661.590359 972.155,661.575 C967.451588,661.621615 962.794745,660.640419 958.51,658.7 C954.34,656.785 951.005,654.375 948.5,651.46 L956.635,640.47 C958.555,642.8 960.87,644.635 963.585,645.965 C966.165843,647.267487 969.014142,647.952174 971.905,647.965 C975.075,647.965 977.705,646.88 979.795,644.715 C981.88,642.55 982.925,639.515 982.925,635.6 C982.925,631.775 981.67,628.735 979.17,626.485 C976.665,624.235 973.49,622.16 969.65,620.235 C967.289552,619.106834 965.010686,617.815365 962.83,616.37 C960.717058,614.968316 958.820343,613.265315 957.2,611.315 C955.516997,609.267213 954.202461,606.942667 953.315,604.445 C952.355,601.82 951.875,598.68 951.875,595.015 C951.875,590.44 952.61,586.51 954.07,583.215 C955.525,579.93 957.445,577.2 959.825,575.04 C962.159869,572.901941 964.908046,571.264947 967.9,570.23 C970.837926,569.20228 973.92751,568.674955 977.04,568.67 C981.545,568.67 985.57,569.4 989.12,570.855 C992.67,572.315 995.65,574.455 998.07,577.29 L989.805,588.025 L989.805,588.025 Z" id="Shape" fill="#FFFFFE" fill-rule="nonzero" mask="url(#mask-2)"></path>
                    </g>
                    <g id="Clipped">
                        <mask id="mask-4" fill="white">
                            <use xlink:href="#path-3"></use>
                        </mask>
                        <g id="a"></g>
                        <polygon id="Shape" fill="#FFFFFF" fill-rule="nonzero" mask="url(#mask-4)" points="958.66 137.605 276.65 358.65 232.335 222.59 914.335 1.54"></polygon>
                    </g>
                </g>
            </g>
        </g>
    </g>
</svg>