<?xml version="1.0" encoding="UTF-8"?>
<svg width="1000px" height="265px" viewBox="0 0 1000 265" version="1.1" xmlns="http://www.w3.org/2000/svg" xmlns:xlink="http://www.w3.org/1999/xlink">
    <title>Rentpro</title>
    <defs></defs>
    <g id="Page-1" stroke="none" stroke-width="1" fill="none" fill-rule="evenodd">
        <g id="Rentpro" transform="translate(0.000000, -368.000000)" fill-rule="nonzero" fill="#FFFFFF">
            <g transform="translate(500.000000, 500.500000) scale(-1, 1) rotate(-180.000000) translate(-500.000000, -500.500000) translate(0.000000, 368.000000)" id="Shape">
                <path d="M456.624797,185.765573 C456.907119,112.087644 457.095333,106.065438 458.695156,101.266492 C462.835875,88.7515952 470.082132,79.435995 479.304642,75.0134373 C487.962508,70.8731705 493.232513,70.2144917 517.794503,70.2144917 L541.133098,70.2144917 L541.133098,83.2939708 L541.133098,96.3734499 L519.770755,96.7498378 C495.585194,97.0321287 493.608942,97.5967105 488.056615,104.465789 L485.13929,108.041474 L484.856969,153.113924 L484.574647,198.186373 L512.900926,198.186373 L541.227205,198.186373 L540.944884,211.64224 L540.662562,225.00401 L512.712712,225.286301 L484.668754,225.474495 L484.668754,245.234859 L484.668754,264.995224 L470.552668,264.995224 L456.342475,264.995224 L456.624797,185.765573 Z"></path>
                <path d="M342.096286,228.673792 C341.061106,228.485598 337.86146,227.82692 335.038243,227.262338 C332.215026,226.697756 325.815733,224.345332 320.922157,221.992907 C313.205363,218.323125 310.852682,216.535283 303.512317,209.101622 C297.018918,202.514834 294.195701,198.845052 291.560698,193.481525 C284.784977,179.555173 284.879084,180.966628 284.502655,122.720602 L284.126226,70.2144917 L299.183384,70.2144917 L314.33465,70.2144917 L314.522865,122.250117 L314.805186,174.191646 L317.816618,180.402046 C323.933589,192.822846 335.602886,200.726992 349.060222,201.667961 C364.11738,202.703028 377.010072,195.645755 384.350437,182.283985 C389.432227,172.780191 389.620442,170.898252 389.620442,118.486238 L389.620442,70.2144917 L403.736528,70.2144917 L417.852614,70.2144917 L417.852614,121.120953 C417.852614,178.520106 417.758507,179.555173 410.982785,193.481525 C402.795456,210.230786 384.726865,223.592556 364.399702,227.82692 C358.565053,229.144277 346.519326,229.520665 342.096286,228.673792 Z"></path>
                <path d="M55.5397403,226.980047 C45.5643729,224.157138 36.8123996,218.511319 32.0129303,211.830434 C30.695429,210.042592 29.3779276,208.53704 29.0014987,208.53704 C28.5309625,208.53704 28.2486407,212.395016 28.2486407,217.005768 L28.2486407,225.474495 L14.603091,225.474495 L0.957541166,225.474495 L0.957541166,147.844494 L0.957541166,70.2144917 L15.5441634,70.2144917 L30.1307855,70.2144917 L30.1307855,114.722359 C30.1307855,164.405561 30.4131073,167.22847 36.3418634,179.366979 C40.5766892,187.835707 46.5995525,194.046107 54.1281317,197.715889 C58.8334937,200.068313 61.0920675,200.538798 68.9029684,200.821089 L78.1254779,201.197477 L78.1254779,214.747441 L78.1254779,228.297404 L68.9970756,228.203307 C63.9152847,228.203307 57.8924213,227.638726 55.5397403,226.980047 Z"></path>
                <path d="M155.763951,226.791853 C126.967135,220.487356 103.816754,197.904083 95.9117462,168.545827 C93.088529,158.289257 92.8062073,134.012239 95.3471028,124.790735 C102.405146,98.8199712 124.520347,76.4248919 150.588053,68.8971341 C162.633779,65.4155461 183.149158,65.4155461 196.041849,68.8971341 C226.626702,77.1776676 251.94155,105.312662 254.294231,133.824045 L254.764767,138.62299 L240.648681,140.693124 C232.83778,141.72819 226.438488,142.575063 226.344381,142.386869 C226.250273,142.292772 225.026879,138.152505 223.615271,133.259463 C220.133303,121.026857 215.992584,113.122711 209.875614,106.818214 C203.758643,100.701911 196.982922,97.1262257 187.289876,95.0560923 C178.349688,93.1741528 165.551104,93.7387347 157.269667,96.4675469 C148.800015,99.1022621 139.295184,105.877244 134.025178,112.84042 C126.12017,123.285184 123.296953,131.848008 123.296953,145.586166 C123.296953,165.064239 131.107854,182.283985 144.753404,192.446458 C152.187876,198.092276 158.775382,200.256507 170.068251,200.821089 C181.172906,201.291574 189.266128,200.068313 196.230064,196.586725 C200.935426,194.328398 209.781507,187.365222 208.934541,186.706543 C208.65222,186.424252 191.336487,176.826361 170.350573,165.34653 C149.364658,153.772603 132.143034,144.174712 131.954819,144.080615 C131.296068,143.516033 144.000546,121.497341 144.847511,121.685535 C147.482514,122.344214 248.459582,178.990591 248.459582,179.837464 C248.459582,181.8135 239.142965,195.928046 233.684745,202.138446 C223.332949,214.088762 212.322402,221.240132 197.453458,225.568592 C188.136841,228.203307 165.362889,228.956083 155.763951,226.791853 Z"></path>
                <path d="M626.488365,226.88595 C601.549946,222.181101 578.964209,203.549901 570.682772,180.872531 C565.600981,166.757985 565.600981,167.040276 565.600981,80.5651586 L565.600981,0.582732516 L579.24653,0.582732516 L592.89208,0.582732516 L592.89208,71.9082372 C592.89208,146.903524 593.268509,154.901766 597.126906,166.381597 C601.832268,180.402046 611.148885,191.223198 623.665148,197.433598 C630.817298,201.009283 632.228906,201.291574 640.604451,201.762058 C655.002859,202.420737 666.107513,198.845052 677.306274,189.811743 C688.316821,180.872531 694.245578,168.45173 695.18665,152.078857 C697.162902,118.392141 676.553416,93.7387347 646.533207,93.7387347 C636.746054,93.7387347 629.970333,95.6206741 617.077641,101.64288 C611.054777,104.559886 605.878879,106.912311 605.596558,106.912311 C605.314236,106.912311 605.126021,100.325523 605.126021,92.3272801 L605.126021,77.7422495 L610.584241,75.0134373 C628.464617,65.980128 655.849824,64.2863825 675.894666,70.8731705 C698.480403,78.3068313 715.325599,99.1022621 721.44257,127.14316 C723.889358,138.434796 723.701144,159.606615 721.066141,169.3927 C716.831315,184.9187 706.385411,201.291574 694.622007,211.077659 C686.99932,217.288059 675.894666,222.933877 665.825191,225.568592 C655.755716,228.203307 636.651947,228.767889 626.488365,226.88595 Z"></path>
                <path d="M801.621938,226.791853 C793.058179,224.72172 786.847102,221.051938 779.977273,213.994665 L773.577981,207.407877 L773.577981,216.441186 L773.577981,225.474495 L760.402967,225.474495 L747.227954,225.474495 L747.227954,147.844494 L747.227954,70.2144917 L761.34404,70.2144917 L775.460126,70.2144917 L775.460126,113.969584 C775.460126,162.994106 775.836555,166.852082 781.671203,179.084688 C788.823354,194.046107 801.998367,201.950252 819.97285,201.950252 L823.454818,201.950252 L823.454818,215.123828 L823.454818,228.297404 L815.267488,228.203307 C810.656233,228.203307 804.539263,227.544629 801.621938,226.791853 Z"></path>
                <path d="M902.504899,226.980047 C884.624524,223.122071 872.108261,215.970701 858.650926,201.762058 C846.040556,188.400288 840.488228,176.261779 838.229655,157.536482 C835.406437,134.57682 841.146979,113.969584 854.980743,97.2203226 C869.379151,79.8123828 888.765242,69.9322008 913.421339,67.3915826 C941.747618,64.4745764 963.486391,73.1314978 980.143372,94.0210256 C987.483737,103.242529 993.883029,115.663329 996.800354,126.672675 C999.623571,137.305633 999.811786,159.324324 997.176783,169.486797 C990.024633,197.05721 968.097646,218.134932 938.736187,226.039077 C930.925286,228.109211 910.409908,228.579695 902.504899,226.980047 Z M934.407254,199.503731 C950.593699,195.269367 963.580498,182.189888 967.909431,165.722918 C969.791576,158.477451 969.791576,141.822287 967.815324,132.506687 C965.086214,118.862626 957.934064,107.288699 948.805661,101.360589 C941.277082,96.5616438 934.219039,94.5856074 922.737956,94.0210256 C906.363296,93.2682498 894.31757,97.0321287 884.153988,106.253632 C865.708969,122.908796 861.662357,158.006966 875.778443,179.178785 C884.248095,192.07007 894.97632,198.468664 912.856696,201.385671 C916.620985,202.044349 928.760819,200.915186 934.407254,199.503731 Z"></path>
            </g>
        </g>
    </g>
</svg>