<svg xmlns="http://www.w3.org/2000/svg" width="1920" height="1080"><path d="M941,520L952,601L1046,593Z" fill="#fdfdfd" stroke="#fdfdfd" stroke-width="1.51"/><path d="M952,601L1039,653L1046,593Z" fill="#fbfbfb" stroke="#fbfbfb" stroke-width="1.51"/><path d="M1046,593L1126,483L941,520Z" fill="#fdfdfd" stroke="#fdfdfd" stroke-width="1.51"/><path d="M1200,555L1126,483L1046,593Z" fill="#fbfbfb" stroke="#fbfbfb" stroke-width="1.51"/><path d="M961,380L940,398L941,520Z" fill="#fafafa" stroke="#fafafa" stroke-width="1.51"/><path d="M1126,483L961,380L941,520Z" fill="#fafafa" stroke="#fafafa" stroke-width="1.51"/><path d="M952,601L986,753L1039,653Z" fill="#fafafa" stroke="#fafafa" stroke-width="1.51"/><path d="M1187,684L1200,555L1046,593Z" fill="#f8f8f8" stroke="#f8f8f8" stroke-width="1.51"/><path d="M1187,684L1046,593L1039,653Z" fill="#f8f8f8" stroke="#f8f8f8" stroke-width="1.51"/><path d="M1126,483L1088,324L961,380Z" fill="#f7f7f7" stroke="#f7f7f7" stroke-width="1.51"/><path d="M1200,555L1188,430L1126,483Z" fill="#f8f8f8" stroke="#f8f8f8" stroke-width="1.51"/><path d="M1157,790L1187,684L1039,653Z" fill="#f6f6f6" stroke="#f6f6f6" stroke-width="1.51"/><path d="M1188,430L1088,324L1126,483Z" fill="#f5f5f5" stroke="#f5f5f5" stroke-width="1.51"/><path d="M736,578L784,684L952,601Z" fill="#f9f9f9" stroke="#f9f9f9" stroke-width="1.51"/><path d="M952,601L891,790L986,753Z" fill="#f8f8f8" stroke="#f8f8f8" stroke-width="1.51"/><path d="M736,578L952,601L941,520Z" fill="#fbfbfb" stroke="#fbfbfb" stroke-width="1.51"/><path d="M784,684L891,790L952,601Z" fill="#f7f7f7" stroke="#f7f7f7" stroke-width="1.51"/><path d="M1243,764L1240,686L1187,684Z" fill="#f3f3f3" stroke="#f3f3f3" stroke-width="1.51"/><path d="M724,503L736,578L941,520Z" fill="#fafafa" stroke="#fafafa" stroke-width="1.51"/><path d="M732,458L724,503L941,520Z" fill="#f8f8f8" stroke="#f8f8f8" stroke-width="1.51"/><path d="M732,458L941,520L940,398Z" fill="#f9f9f9" stroke="#f9f9f9" stroke-width="1.51"/><path d="M1088,324L1046,282L961,380Z" fill="#f4f4f4" stroke="#f4f4f4" stroke-width="1.51"/><path d="M713,353L732,458L940,398Z" fill="#f5f5f5" stroke="#f5f5f5" stroke-width="1.51"/><path d="M1187,684L1240,686L1200,555Z" fill="#f6f6f6" stroke="#f6f6f6" stroke-width="1.51"/><path d="M1240,386L1205,361L1188,430Z" fill="#f3f3f3" stroke="#f3f3f3" stroke-width="1.51"/><path d="M1157,790L1039,653L986,753Z" fill="#f6f6f6" stroke="#f6f6f6" stroke-width="1.51"/><path d="M890,270L940,398L961,380Z" fill="#f6f6f6" stroke="#f6f6f6" stroke-width="1.51"/><path d="M1188,430L1205,361L1088,324Z" fill="#f3f3f3" stroke="#f3f3f3" stroke-width="1.51"/><path d="M1088,324L1167,174L1046,282Z" fill="#f0f0f0" stroke="#f0f0f0" stroke-width="1.51"/><path d="M1240,386L1188,430L1200,555Z" fill="#f6f6f6" stroke="#f6f6f6" stroke-width="1.51"/><path d="M1072,890L1157,790L986,753Z" fill="#f3f3f3" stroke="#f3f3f3" stroke-width="1.51"/><path d="M1348,598L1240,386L1200,555Z" fill="#f7f7f7" stroke="#f7f7f7" stroke-width="1.51"/><path d="M1046,282L890,270L961,380Z" fill="#f5f5f5" stroke="#f5f5f5" stroke-width="1.51"/><path d="M784,684L732,734L891,790Z" fill="#f4f4f4" stroke="#f4f4f4" stroke-width="1.51"/><path d="M736,578L732,734L784,684Z" fill="#f5f5f5" stroke="#f5f5f5" stroke-width="1.51"/><path d="M621,668L732,734L736,578Z" fill="#f4f4f4" stroke="#f4f4f4" stroke-width="1.51"/><path d="M891,790L875,850L986,753Z" fill="#f5f5f5" stroke="#f5f5f5" stroke-width="1.51"/><path d="M732,734L875,850L891,790Z" fill="#f3f3f3" stroke="#f3f3f3" stroke-width="1.51"/><path d="M1157,790L1243,764L1187,684Z" fill="#f3f3f3" stroke="#f3f3f3" stroke-width="1.51"/><path d="M1240,686L1348,598L1200,555Z" fill="#f6f6f6" stroke="#f6f6f6" stroke-width="1.51"/><path d="M1046,282L1016,224L890,270Z" fill="#f3f3f3" stroke="#f3f3f3" stroke-width="1.51"/><path d="M1167,174L1016,224L1046,282Z" fill="#efefef" stroke="#efefef" stroke-width="1.51"/><path d="M1167,174L1088,324L1205,361Z" fill="#f0f0f0" stroke="#f0f0f0" stroke-width="1.51"/><path d="M1157,790L1286,904L1243,764Z" fill="#efefef" stroke="#efefef" stroke-width="1.51"/><path d="M875,850L1072,890L986,753Z" fill="#f5f5f5" stroke="#f5f5f5" stroke-width="1.51"/><path d="M732,458L596,467L724,503Z" fill="#f5f5f5" stroke="#f5f5f5" stroke-width="1.51"/><path d="M557,561L621,668L736,578Z" fill="#f4f4f4" stroke="#f4f4f4" stroke-width="1.51"/><path d="M755,282L713,353L940,398Z" fill="#f2f2f2" stroke="#f2f2f2" stroke-width="1.51"/><path d="M1429,656L1348,598L1393,758Z" fill="#f1f1f1" stroke="#f1f1f1" stroke-width="1.51"/><path d="M890,270L755,282L940,398Z" fill="#f3f3f3" stroke="#f3f3f3" stroke-width="1.51"/><path d="M788,195L755,282L890,270Z" fill="#efefef" stroke="#efefef" stroke-width="1.51"/><path d="M1072,890L1082,920L1157,790Z" fill="#f1f1f1" stroke="#f1f1f1" stroke-width="1.51"/><path d="M1021,1023L1082,920L1072,890Z" fill="#f0f0f0" stroke="#f0f0f0" stroke-width="1.51"/><path d="M713,353L661,381L732,458Z" fill="#f2f2f2" stroke="#f2f2f2" stroke-width="1.51"/><path d="M576,343L661,381L713,353Z" fill="#efefef" stroke="#efefef" stroke-width="1.51"/><path d="M1016,224L928,179L890,270Z" fill="#f1f1f1" stroke="#f1f1f1" stroke-width="1.51"/><path d="M1240,386L1310,325L1205,361Z" fill="#f1f1f1" stroke="#f1f1f1" stroke-width="1.51"/><path d="M1018,25L907,110L928,179Z" fill="#f0f0f0" stroke="#f0f0f0" stroke-width="1.51"/><path d="M1405,387L1310,325L1240,386Z" fill="#efefef" stroke="#efefef" stroke-width="1.51"/><path d="M557,561L736,578L724,503Z" fill="#f7f7f7" stroke="#f7f7f7" stroke-width="1.51"/><path d="M732,734L784,896L875,850Z" fill="#f1f1f1" stroke="#f1f1f1" stroke-width="1.51"/><path d="M619,814L784,896L732,734Z" fill="#efefef" stroke="#efefef" stroke-width="1.51"/><path d="M875,850L1021,1023L1072,890Z" fill="#f2f2f2" stroke="#f2f2f2" stroke-width="1.51"/><path d="M1348,598L1403,554L1240,386Z" fill="#f6f6f6" stroke="#f6f6f6" stroke-width="1.51"/><path d="M1431,590L1403,554L1348,598Z" fill="#f4f4f4" stroke="#f4f4f4" stroke-width="1.51"/><path d="M661,381L596,467L732,458Z" fill="#f2f2f2" stroke="#f2f2f2" stroke-width="1.51"/><path d="M755,282L576,343L713,353Z" fill="#eeeeee" stroke="#eeeeee" stroke-width="1.51"/><path d="M661,381L576,343L596,467Z" fill="#efefef" stroke="#efefef" stroke-width="1.51"/><path d="M928,179L788,195L890,270Z" fill="#efefef" stroke="#efefef" stroke-width="1.51"/><path d="M1082,920L1112,953L1157,790Z" fill="#f0f0f0" stroke="#f0f0f0" stroke-width="1.51"/><path d="M1429,656L1431,590L1348,598Z" fill="#f3f3f3" stroke="#f3f3f3" stroke-width="1.51"/><path d="M1021,1023L1112,953L1082,920Z" fill="#f0f0f0" stroke="#f0f0f0" stroke-width="1.51"/><path d="M1271,169L1167,174L1205,361Z" fill="#ededed" stroke="#ededed" stroke-width="1.51"/><path d="M1431,446L1405,387L1240,386Z" fill="#f1f1f1" stroke="#f1f1f1" stroke-width="1.51"/><path d="M1348,598L1240,686L1393,758Z" fill="#f2f2f2" stroke="#f2f2f2" stroke-width="1.51"/><path d="M596,467L557,561L724,503Z" fill="#f5f5f5" stroke="#f5f5f5" stroke-width="1.51"/><path d="M1431,446L1240,386L1403,554Z" fill="#f3f3f3" stroke="#f3f3f3" stroke-width="1.51"/><path d="M1310,325L1271,169L1205,361Z" fill="#eeeeee" stroke="#eeeeee" stroke-width="1.51"/><path d="M1393,758L1240,686L1243,764Z" fill="#f1f1f1" stroke="#f1f1f1" stroke-width="1.51"/><path d="M1286,904L1393,758L1243,764Z" fill="#eeeeee" stroke="#eeeeee" stroke-width="1.51"/><path d="M1558,509L1431,446L1403,554Z" fill="#f2f2f2" stroke="#f2f2f2" stroke-width="1.51"/><path d="M928,179L821,119L788,195Z" fill="#ececec" stroke="#ececec" stroke-width="1.51"/><path d="M1018,25L928,179L1016,224Z" fill="#efefef" stroke="#efefef" stroke-width="1.51"/><path d="M1241,950L1286,904L1157,790Z" fill="#ededed" stroke="#ededed" stroke-width="1.51"/><path d="M784,896L797,965L875,850Z" fill="#efefef" stroke="#efefef" stroke-width="1.51"/><path d="M658,916L797,965L784,896Z" fill="#ececec" stroke="#ececec" stroke-width="1.51"/><path d="M619,814L732,734L621,668Z" fill="#f0f0f0" stroke="#f0f0f0" stroke-width="1.51"/><path d="M545,716L619,814L621,668Z" fill="#eeeeee" stroke="#eeeeee" stroke-width="1.51"/><path d="M1112,953L1241,950L1157,790Z" fill="#eeeeee" stroke="#eeeeee" stroke-width="1.51"/><path d="M1165,1121L1241,950L1112,953Z" fill="#eeeeee" stroke="#eeeeee" stroke-width="1.51"/><path d="M907,110L821,119L928,179Z" fill="#eeeeee" stroke="#eeeeee" stroke-width="1.51"/><path d="M578,189L576,343L755,282Z" fill="#ebebeb" stroke="#ebebeb" stroke-width="1.51"/><path d="M578,189L755,282L620,141Z" fill="#e8e8e8" stroke="#e8e8e8" stroke-width="1.51"/><path d="M596,467L410,489L557,561Z" fill="#f1f1f1" stroke="#f1f1f1" stroke-width="1.51"/><path d="M958,1045L1021,1023L875,850Z" fill="#f2f2f2" stroke="#f2f2f2" stroke-width="1.51"/><path d="M1414,176L1271,169L1310,325Z" fill="#eaeaea" stroke="#eaeaea" stroke-width="1.51"/><path d="M1167,174L1128,75L1016,224Z" fill="#ececec" stroke="#ececec" stroke-width="1.51"/><path d="M500,694L545,716L621,668Z" fill="#efefef" stroke="#efefef" stroke-width="1.51"/><path d="M797,965L958,1045L875,850Z" fill="#f0f0f0" stroke="#f0f0f0" stroke-width="1.51"/><path d="M1310,1098L1331,943L1241,950Z" fill="#ebebeb" stroke="#ebebeb" stroke-width="1.51"/><path d="M797,965L920,1072L958,1045Z" fill="#f0f0f0" stroke="#f0f0f0" stroke-width="1.51"/><path d="M619,814L658,916L784,896Z" fill="#ececec" stroke="#ececec" stroke-width="1.51"/><path d="M548,858L658,916L619,814Z" fill="#eaeaea" stroke="#eaeaea" stroke-width="1.51"/><path d="M1295,55L1128,75L1167,174Z" fill="#ebebeb" stroke="#ebebeb" stroke-width="1.51"/><path d="M907,110L926,10L821,119Z" fill="#efefef" stroke="#efefef" stroke-width="1.51"/><path d="M1286,904L1371,939L1393,758Z" fill="#ebebeb" stroke="#ebebeb" stroke-width="1.51"/><path d="M1393,758L1502,712L1429,656Z" fill="#efefef" stroke="#efefef" stroke-width="1.51"/><path d="M1241,950L1331,943L1286,904Z" fill="#ebebeb" stroke="#ebebeb" stroke-width="1.51"/><path d="M1165,1121L1112,953L1021,1023Z" fill="#efefef" stroke="#efefef" stroke-width="1.51"/><path d="M557,561L500,694L621,668Z" fill="#f0f0f0" stroke="#f0f0f0" stroke-width="1.51"/><path d="M545,716L548,858L619,814Z" fill="#ececec" stroke="#ececec" stroke-width="1.51"/><path d="M474,696L500,694L557,561Z" fill="#efefef" stroke="#efefef" stroke-width="1.51"/><path d="M958,1045L991,1087L1021,1023Z" fill="#f2f2f2" stroke="#f2f2f2" stroke-width="1.51"/><path d="M817,1113L920,1072L797,965Z" fill="#efefef" stroke="#efefef" stroke-width="1.51"/><path d="M1128,75L1018,25L1016,224Z" fill="#eeeeee" stroke="#eeeeee" stroke-width="1.51"/><path d="M1550,877L1502,712L1393,758Z" fill="#ebebeb" stroke="#ebebeb" stroke-width="1.51"/><path d="M1429,656L1502,712L1431,590Z" fill="#f0f0f0" stroke="#f0f0f0" stroke-width="1.51"/><path d="M1431,590L1558,509L1403,554Z" fill="#f3f3f3" stroke="#f3f3f3" stroke-width="1.51"/><path d="M920,1072L991,1087L958,1045Z" fill="#f2f2f2" stroke="#f2f2f2" stroke-width="1.51"/><path d="M1331,943L1371,939L1286,904Z" fill="#eaeaea" stroke="#eaeaea" stroke-width="1.51"/><path d="M1439,1004L1371,939L1331,943Z" fill="#e9e9e9" stroke="#e9e9e9" stroke-width="1.51"/><path d="M500,694L471,802L545,716Z" fill="#ececec" stroke="#ececec" stroke-width="1.51"/><path d="M410,489L474,696L557,561Z" fill="#f0f0f0" stroke="#f0f0f0" stroke-width="1.51"/><path d="M471,802L548,858L545,716Z" fill="#eaeaea" stroke="#eaeaea" stroke-width="1.51"/><path d="M658,916L621,1005L797,965Z" fill="#ebebeb" stroke="#ebebeb" stroke-width="1.51"/><path d="M620,141L755,282L788,195Z" fill="#eaeaea" stroke="#eaeaea" stroke-width="1.51"/><path d="M1018,25L926,10L907,110Z" fill="#f1f1f1" stroke="#f1f1f1" stroke-width="1.51"/><path d="M576,343L431,403L596,467Z" fill="#eeeeee" stroke="#eeeeee" stroke-width="1.51"/><path d="M620,141L788,195L635,127Z" fill="#e8e8e8" stroke="#e8e8e8" stroke-width="1.51"/><path d="M635,127L788,195L821,119Z" fill="#eaeaea" stroke="#eaeaea" stroke-width="1.51"/><path d="M765,-8L635,127L821,119Z" fill="#ebebeb" stroke="#ebebeb" stroke-width="1.51"/><path d="M1271,169L1295,55L1167,174Z" fill="#eaeaea" stroke="#eaeaea" stroke-width="1.51"/><path d="M1128,75L1103,-43L1018,25Z" fill="#efefef" stroke="#efefef" stroke-width="1.51"/><path d="M1405,387L1414,176L1310,325Z" fill="#ececec" stroke="#ececec" stroke-width="1.51"/><path d="M1518,309L1414,176L1405,387Z" fill="#eaeaea" stroke="#eaeaea" stroke-width="1.51"/><path d="M1518,309L1405,387L1431,446Z" fill="#eeeeee" stroke="#eeeeee" stroke-width="1.51"/><path d="M1502,712L1558,509L1431,590Z" fill="#f1f1f1" stroke="#f1f1f1" stroke-width="1.51"/><path d="M1558,509L1518,309L1431,446Z" fill="#eeeeee" stroke="#eeeeee" stroke-width="1.51"/><path d="M474,696L471,802L500,694Z" fill="#ebebeb" stroke="#ebebeb" stroke-width="1.51"/><path d="M1356,96L1295,55L1271,169Z" fill="#e9e9e9" stroke="#e9e9e9" stroke-width="1.51"/><path d="M1018,25L960,-105L926,10Z" fill="#f2f2f2" stroke="#f2f2f2" stroke-width="1.51"/><path d="M1414,176L1356,96L1271,169Z" fill="#e7e7e7" stroke="#e7e7e7" stroke-width="1.51"/><path d="M1517,106L1356,96L1414,176Z" fill="#e6e6e6" stroke="#e6e6e6" stroke-width="1.51"/><path d="M414,249L431,403L576,343Z" fill="#e9e9e9" stroke="#e9e9e9" stroke-width="1.51"/><path d="M341,757L410,881L471,802Z" fill="#e7e7e7" stroke="#e7e7e7" stroke-width="1.51"/><path d="M500,1030L621,1005L548,858Z" fill="#e7e7e7" stroke="#e7e7e7" stroke-width="1.51"/><path d="M548,858L621,1005L658,916Z" fill="#e9e9e9" stroke="#e9e9e9" stroke-width="1.51"/><path d="M902,1197L1006,1201L991,1087Z" fill="#f2f2f2" stroke="#f2f2f2" stroke-width="1.51"/><path d="M666,1078L817,1113L797,965Z" fill="#ededed" stroke="#ededed" stroke-width="1.51"/><path d="M431,403L410,489L596,467Z" fill="#eeeeee" stroke="#eeeeee" stroke-width="1.51"/><path d="M991,1087L1165,1121L1021,1023Z" fill="#f0f0f0" stroke="#f0f0f0" stroke-width="1.51"/><path d="M1006,1201L1165,1121L991,1087Z" fill="#f0f0f0" stroke="#f0f0f0" stroke-width="1.51"/><path d="M1165,1121L1250,1094L1241,950Z" fill="#ededed" stroke="#ededed" stroke-width="1.51"/><path d="M1235,-19L1103,-43L1128,75Z" fill="#ededed" stroke="#ededed" stroke-width="1.51"/><path d="M926,10L765,-8L821,119Z" fill="#eeeeee" stroke="#eeeeee" stroke-width="1.51"/><path d="M635,127L520,118L620,141Z" fill="#e6e6e6" stroke="#e6e6e6" stroke-width="1.51"/><path d="M860,-95L765,-8L926,10Z" fill="#efefef" stroke="#efefef" stroke-width="1.51"/><path d="M1103,-43L1053,-61L1018,25Z" fill="#f0f0f0" stroke="#f0f0f0" stroke-width="1.51"/><path d="M621,1005L666,1078L797,965Z" fill="#ebebeb" stroke="#ebebeb" stroke-width="1.51"/><path d="M500,1030L666,1078L621,1005Z" fill="#e8e8e8" stroke="#e8e8e8" stroke-width="1.51"/><path d="M1295,55L1235,-19L1128,75Z" fill="#ececec" stroke="#ececec" stroke-width="1.51"/><path d="M1103,-43L1151,-150L1053,-61Z" fill="#f0f0f0" stroke="#f0f0f0" stroke-width="1.51"/><path d="M1268,-107L1235,-19L1394,-69Z" fill="#ebebeb" stroke="#ebebeb" stroke-width="1.51"/><path d="M1366,1209L1310,1098L1292,1265Z" fill="#eaeaea" stroke="#eaeaea" stroke-width="1.51"/><path d="M1250,1094L1310,1098L1241,950Z" fill="#ececec" stroke="#ececec" stroke-width="1.51"/><path d="M1371,939L1508,923L1393,758Z" fill="#eaeaea" stroke="#eaeaea" stroke-width="1.51"/><path d="M1439,1004L1508,923L1371,939Z" fill="#e8e8e8" stroke="#e8e8e8" stroke-width="1.51"/><path d="M1502,712L1625,705L1558,509Z" fill="#efefef" stroke="#efefef" stroke-width="1.51"/><path d="M1310,1098L1439,1004L1331,943Z" fill="#eaeaea" stroke="#eaeaea" stroke-width="1.51"/><path d="M320,463L357,525L410,489Z" fill="#ededed" stroke="#ededed" stroke-width="1.51"/><path d="M410,489L357,525L474,696Z" fill="#efefef" stroke="#efefef" stroke-width="1.51"/><path d="M1616,1027L1550,877L1508,923Z" fill="#e6e6e6" stroke="#e6e6e6" stroke-width="1.51"/><path d="M1508,923L1550,877L1393,758Z" fill="#e9e9e9" stroke="#e9e9e9" stroke-width="1.51"/><path d="M615,-16L520,118L635,127Z" fill="#e7e7e7" stroke="#e7e7e7" stroke-width="1.51"/><path d="M620,141L520,118L578,189Z" fill="#e5e5e5" stroke="#e5e5e5" stroke-width="1.51"/><path d="M578,189L414,249L576,343Z" fill="#e7e7e7" stroke="#e7e7e7" stroke-width="1.51"/><path d="M431,403L320,463L410,489Z" fill="#ececec" stroke="#ececec" stroke-width="1.51"/><path d="M902,1197L991,1087L920,1072Z" fill="#f2f2f2" stroke="#f2f2f2" stroke-width="1.51"/><path d="M1165,1121L1292,1265L1250,1094Z" fill="#ececec" stroke="#ececec" stroke-width="1.51"/><path d="M902,1197L920,1072L817,1113Z" fill="#f0f0f0" stroke="#f0f0f0" stroke-width="1.51"/><path d="M1646,728L1625,705L1502,712Z" fill="#ececec" stroke="#ececec" stroke-width="1.51"/><path d="M1616,194L1530,162L1518,309Z" fill="#e5e5e5" stroke="#e5e5e5" stroke-width="1.51"/><path d="M780,1221L902,1197L817,1113Z" fill="#efefef" stroke="#efefef" stroke-width="1.51"/><path d="M520,118L414,249L578,189Z" fill="#e4e4e4" stroke="#e4e4e4" stroke-width="1.51"/><path d="M1151,-150L960,-105L1053,-61Z" fill="#f2f2f2" stroke="#f2f2f2" stroke-width="1.51"/><path d="M1053,-61L960,-105L1018,25Z" fill="#f2f2f2" stroke="#f2f2f2" stroke-width="1.51"/><path d="M765,-8L615,-16L635,127Z" fill="#e9e9e9" stroke="#e9e9e9" stroke-width="1.51"/><path d="M960,-105L860,-95L926,10Z" fill="#f2f2f2" stroke="#f2f2f2" stroke-width="1.51"/><path d="M1394,-69L1235,-19L1295,55Z" fill="#ebebeb" stroke="#ebebeb" stroke-width="1.51"/><path d="M1518,309L1530,162L1414,176Z" fill="#e6e6e6" stroke="#e6e6e6" stroke-width="1.51"/><path d="M1640,386L1518,309L1558,509Z" fill="#ececec" stroke="#ececec" stroke-width="1.51"/><path d="M393,261L361,351L431,403Z" fill="#e7e7e7" stroke="#e7e7e7" stroke-width="1.51"/><path d="M1726,519L1640,386L1558,509Z" fill="#efefef" stroke="#efefef" stroke-width="1.51"/><path d="M414,249L393,261L431,403Z" fill="#e6e6e6" stroke="#e6e6e6" stroke-width="1.51"/><path d="M368,143L393,261L414,249Z" fill="#e2e2e2" stroke="#e2e2e2" stroke-width="1.51"/><path d="M471,802L410,881L548,858Z" fill="#e7e7e7" stroke="#e7e7e7" stroke-width="1.51"/><path d="M341,757L471,802L474,696Z" fill="#e9e9e9" stroke="#e9e9e9" stroke-width="1.51"/><path d="M1625,705L1697,618L1558,509Z" fill="#f0f0f0" stroke="#f0f0f0" stroke-width="1.51"/><path d="M1550,877L1646,728L1502,712Z" fill="#eaeaea" stroke="#eaeaea" stroke-width="1.51"/><path d="M274,693L341,757L474,696Z" fill="#e9e9e9" stroke="#e9e9e9" stroke-width="1.51"/><path d="M361,351L320,463L431,403Z" fill="#eaeaea" stroke="#eaeaea" stroke-width="1.51"/><path d="M256,498L320,463L177,460Z" fill="#eeeeee" stroke="#eeeeee" stroke-width="1.51"/><path d="M1640,386L1624,282L1518,309Z" fill="#e9e9e9" stroke="#e9e9e9" stroke-width="1.51"/><path d="M520,118L368,143L414,249Z" fill="#e1e1e1" stroke="#e1e1e1" stroke-width="1.51"/><path d="M604,-68L615,-16L765,-8Z" fill="#eaeaea" stroke="#eaeaea" stroke-width="1.51"/><path d="M274,693L474,696L357,525Z" fill="#ececec" stroke="#ececec" stroke-width="1.51"/><path d="M666,1078L707,1188L817,1113Z" fill="#ececec" stroke="#ececec" stroke-width="1.51"/><path d="M410,881L500,1030L548,858Z" fill="#e5e5e5" stroke="#e5e5e5" stroke-width="1.51"/><path d="M1530,162L1517,106L1414,176Z" fill="#e4e4e4" stroke="#e4e4e4" stroke-width="1.51"/><path d="M1634,100L1517,106L1530,162Z" fill="#e3e3e3" stroke="#e3e3e3" stroke-width="1.51"/><path d="M504,1162L707,1188L666,1078Z" fill="#e9e9e9" stroke="#e9e9e9" stroke-width="1.51"/><path d="M902,1197L1155,1284L1006,1201Z" fill="#f1f1f1" stroke="#f1f1f1" stroke-width="1.51"/><path d="M707,1188L780,1221L817,1113Z" fill="#ededed" stroke="#ededed" stroke-width="1.51"/><path d="M1646,728L1697,618L1625,705Z" fill="#ededed" stroke="#ededed" stroke-width="1.51"/><path d="M1701,268L1616,194L1624,282Z" fill="#e6e6e6" stroke="#e6e6e6" stroke-width="1.51"/><path d="M860,-95L799,-123L765,-8Z" fill="#efefef" stroke="#efefef" stroke-width="1.51"/><path d="M960,-105L799,-123L860,-95Z" fill="#f1f1f1" stroke="#f1f1f1" stroke-width="1.51"/><path d="M615,-16L489,62L520,118Z" fill="#e6e6e6" stroke="#e6e6e6" stroke-width="1.51"/><path d="M1235,-19L1151,-150L1103,-43Z" fill="#efefef" stroke="#efefef" stroke-width="1.51"/><path d="M960,-105L1151,-150L799,-123Z" fill="#f4f4f4" stroke="#f4f4f4" stroke-width="1.51"/><path d="M1394,-69L1295,55L1356,96Z" fill="#e9e9e9" stroke="#e9e9e9" stroke-width="1.51"/><path d="M1701,268L1624,282L1640,386Z" fill="#e9e9e9" stroke="#e9e9e9" stroke-width="1.51"/><path d="M1624,282L1616,194L1518,309Z" fill="#e7e7e7" stroke="#e7e7e7" stroke-width="1.51"/><path d="M1268,-107L1151,-150L1235,-19Z" fill="#eeeeee" stroke="#eeeeee" stroke-width="1.51"/><path d="M410,881L393,973L500,1030Z" fill="#e4e4e4" stroke="#e4e4e4" stroke-width="1.51"/><path d="M341,757L352,894L410,881Z" fill="#e5e5e5" stroke="#e5e5e5" stroke-width="1.51"/><path d="M1697,618L1726,519L1558,509Z" fill="#f2f2f2" stroke="#f2f2f2" stroke-width="1.51"/><path d="M352,894L393,973L410,881Z" fill="#e3e3e3" stroke="#e3e3e3" stroke-width="1.51"/><path d="M500,1030L504,1162L666,1078Z" fill="#e7e7e7" stroke="#e7e7e7" stroke-width="1.51"/><path d="M256,498L274,693L357,525Z" fill="#efefef" stroke="#efefef" stroke-width="1.51"/><path d="M341,757L175,824L352,894Z" fill="#e7e7e7" stroke="#e7e7e7" stroke-width="1.51"/><path d="M615,-16L604,-68L489,62Z" fill="#e8e8e8" stroke="#e8e8e8" stroke-width="1.51"/><path d="M668,-163L604,-68L765,-8Z" fill="#ececec" stroke="#ececec" stroke-width="1.51"/><path d="M1268,-107L1382,-166L1151,-150Z" fill="#eeeeee" stroke="#eeeeee" stroke-width="1.51"/><path d="M1502,-42L1394,-69L1356,96Z" fill="#e8e8e8" stroke="#e8e8e8" stroke-width="1.51"/><path d="M1502,-42L1356,96L1517,106Z" fill="#e6e6e6" stroke="#e6e6e6" stroke-width="1.51"/><path d="M320,463L256,498L357,525Z" fill="#eeeeee" stroke="#eeeeee" stroke-width="1.51"/><path d="M177,460L320,463L160,332Z" fill="#ececec" stroke="#ececec" stroke-width="1.51"/><path d="M263,209L361,351L393,261Z" fill="#e5e5e5" stroke="#e5e5e5" stroke-width="1.51"/><path d="M1310,1098L1482,1122L1439,1004Z" fill="#e8e8e8" stroke="#e8e8e8" stroke-width="1.51"/><path d="M1006,1201L1155,1284L1165,1121Z" fill="#efefef" stroke="#efefef" stroke-width="1.51"/><path d="M780,1221L1155,1284L902,1197Z" fill="#f2f2f2" stroke="#f2f2f2" stroke-width="1.51"/><path d="M1550,877L1726,745L1646,728Z" fill="#eaeaea" stroke="#eaeaea" stroke-width="1.51"/><path d="M1646,728L1726,745L1697,618Z" fill="#ededed" stroke="#ededed" stroke-width="1.51"/><path d="M1439,1004L1616,1027L1508,923Z" fill="#e6e6e6" stroke="#e6e6e6" stroke-width="1.51"/><path d="M1366,1209L1482,1122L1310,1098Z" fill="#e9e9e9" stroke="#e9e9e9" stroke-width="1.51"/><path d="M489,62L368,143L520,118Z" fill="#e3e3e3" stroke="#e3e3e3" stroke-width="1.51"/><path d="M353,110L368,143L489,62Z" fill="#e1e1e1" stroke="#e1e1e1" stroke-width="1.51"/><path d="M1292,1265L1310,1098L1250,1094Z" fill="#ebebeb" stroke="#ebebeb" stroke-width="1.51"/><path d="M1687,960L1726,745L1550,877Z" fill="#e8e8e8" stroke="#e8e8e8" stroke-width="1.51"/><path d="M1697,618L1855,524L1726,519Z" fill="#f2f2f2" stroke="#f2f2f2" stroke-width="1.51"/><path d="M1843,456L1752,476L1855,524Z" fill="#f0f0f0" stroke="#f0f0f0" stroke-width="1.51"/><path d="M1726,519L1752,476L1640,386Z" fill="#efefef" stroke="#efefef" stroke-width="1.51"/><path d="M1752,476L1701,268L1640,386Z" fill="#ebebeb" stroke="#ebebeb" stroke-width="1.51"/><path d="M1544,-52L1502,-42L1517,106Z" fill="#e6e6e6" stroke="#e6e6e6" stroke-width="1.51"/><path d="M352,894L376,1000L393,973Z" fill="#e3e3e3" stroke="#e3e3e3" stroke-width="1.51"/><path d="M393,973L376,1000L500,1030Z" fill="#e4e4e4" stroke="#e4e4e4" stroke-width="1.51"/><path d="M207,1047L376,1000L352,894Z" fill="#e4e4e4" stroke="#e4e4e4" stroke-width="1.51"/><path d="M1155,1284L1292,1265L1165,1121Z" fill="#ededed" stroke="#ededed" stroke-width="1.51"/><path d="M1555,1152L1616,1027L1482,1122Z" fill="#e6e6e6" stroke="#e6e6e6" stroke-width="1.51"/><path d="M1482,1122L1616,1027L1439,1004Z" fill="#e6e6e6" stroke="#e6e6e6" stroke-width="1.51"/><path d="M1555,1152L1482,1122L1513,1204Z" fill="#e6e6e6" stroke="#e6e6e6" stroke-width="1.51"/><path d="M368,143L263,209L393,261Z" fill="#e2e2e2" stroke="#e2e2e2" stroke-width="1.51"/><path d="M343,-8L353,110L489,62Z" fill="#e2e2e2" stroke="#e2e2e2" stroke-width="1.51"/><path d="M707,1188L536,1263L780,1221Z" fill="#ebebeb" stroke="#ebebeb" stroke-width="1.51"/><path d="M402,1104L504,1162L500,1030Z" fill="#e5e5e5" stroke="#e5e5e5" stroke-width="1.51"/><path d="M1634,100L1530,162L1616,194Z" fill="#e3e3e3" stroke="#e3e3e3" stroke-width="1.51"/><path d="M1394,-69L1382,-166L1268,-107Z" fill="#ebebeb" stroke="#ebebeb" stroke-width="1.51"/><path d="M1702,169L1634,100L1616,194Z" fill="#e3e3e3" stroke="#e3e3e3" stroke-width="1.51"/><path d="M389,-66L343,-8L489,62Z" fill="#e3e3e3" stroke="#e3e3e3" stroke-width="1.51"/><path d="M799,-123L668,-163L765,-8Z" fill="#ededed" stroke="#ededed" stroke-width="1.51"/><path d="M1151,-150L668,-163L799,-123Z" fill="#f2f2f2" stroke="#f2f2f2" stroke-width="1.51"/><path d="M1726,745L1781,688L1697,618Z" fill="#ededed" stroke="#ededed" stroke-width="1.51"/><path d="M1840,780L1781,688L1726,745Z" fill="#ececec" stroke="#ececec" stroke-width="1.51"/><path d="M1616,1027L1687,960L1550,877Z" fill="#e6e6e6" stroke="#e6e6e6" stroke-width="1.51"/><path d="M1701,268L1702,169L1616,194Z" fill="#e5e5e5" stroke="#e5e5e5" stroke-width="1.51"/><path d="M1634,100L1544,-52L1517,106Z" fill="#e5e5e5" stroke="#e5e5e5" stroke-width="1.51"/><path d="M1837,147L1702,169L1701,268Z" fill="#e4e4e4" stroke="#e4e4e4" stroke-width="1.51"/><path d="M283,1162L402,1104L376,1000Z" fill="#e3e3e3" stroke="#e3e3e3" stroke-width="1.51"/><path d="M376,1000L402,1104L500,1030Z" fill="#e4e4e4" stroke="#e4e4e4" stroke-width="1.51"/><path d="M353,110L263,209L368,143Z" fill="#e0e0e0" stroke="#e0e0e0" stroke-width="1.51"/><path d="M668,-163L606,-163L604,-68Z" fill="#ebebeb" stroke="#ebebeb" stroke-width="1.51"/><path d="M1151,-150L1382,-166L668,-163Z" fill="#f2f2f2" stroke="#f2f2f2" stroke-width="1.51"/><path d="M668,-163L281,-185L606,-163Z" fill="#e9e9e9" stroke="#e9e9e9" stroke-width="1.51"/><path d="M1465,-168L1382,-166L1394,-69Z" fill="#eaeaea" stroke="#eaeaea" stroke-width="1.51"/><path d="M1502,-42L1465,-168L1394,-69Z" fill="#e9e9e9" stroke="#e9e9e9" stroke-width="1.51"/><path d="M1686,-3L1544,-52L1634,100Z" fill="#e5e5e5" stroke="#e5e5e5" stroke-width="1.51"/><path d="M1774,951L1745,934L1687,960Z" fill="#e6e6e6" stroke="#e6e6e6" stroke-width="1.51"/><path d="M1513,1204L1482,1122L1366,1209Z" fill="#e8e8e8" stroke="#e8e8e8" stroke-width="1.51"/><path d="M256,498L167,638L274,693Z" fill="#eeeeee" stroke="#eeeeee" stroke-width="1.51"/><path d="M274,693L175,824L341,757Z" fill="#e9e9e9" stroke="#e9e9e9" stroke-width="1.51"/><path d="M160,332L320,463L361,351Z" fill="#eaeaea" stroke="#eaeaea" stroke-width="1.51"/><path d="M1292,1265L1513,1204L1366,1209Z" fill="#e9e9e9" stroke="#e9e9e9" stroke-width="1.51"/><path d="M177,460L167,638L256,498Z" fill="#f1f1f1" stroke="#f1f1f1" stroke-width="1.51"/><path d="M1778,901L1745,934L1774,951Z" fill="#e6e6e6" stroke="#e6e6e6" stroke-width="1.51"/><path d="M1774,951L1687,960L1732,1146Z" fill="#e6e6e6" stroke="#e6e6e6" stroke-width="1.51"/><path d="M1687,960L1745,934L1726,745Z" fill="#e7e7e7" stroke="#e7e7e7" stroke-width="1.51"/><path d="M488,1246L536,1263L504,1162Z" fill="#e6e6e6" stroke="#e6e6e6" stroke-width="1.51"/><path d="M504,1162L536,1263L707,1188Z" fill="#e8e8e8" stroke="#e8e8e8" stroke-width="1.51"/><path d="M780,1221L536,1263L1155,1284Z" fill="#efefef" stroke="#efefef" stroke-width="1.51"/><path d="M1752,476L1877,327L1701,268Z" fill="#ebebeb" stroke="#ebebeb" stroke-width="1.51"/><path d="M1855,524L1752,476L1726,519Z" fill="#f1f1f1" stroke="#f1f1f1" stroke-width="1.51"/><path d="M1855,524L1697,618L1781,688Z" fill="#f0f0f0" stroke="#f0f0f0" stroke-width="1.51"/><path d="M1745,934L1778,901L1726,745Z" fill="#e8e8e8" stroke="#e8e8e8" stroke-width="1.51"/><path d="M1687,960L1616,1027L1732,1146Z" fill="#e6e6e6" stroke="#e6e6e6" stroke-width="1.51"/><path d="M402,1104L488,1246L504,1162Z" fill="#e5e5e5" stroke="#e5e5e5" stroke-width="1.51"/><path d="M1902,697L1855,524L1781,688Z" fill="#efefef" stroke="#efefef" stroke-width="1.51"/><path d="M479,-140L489,62L604,-68Z" fill="#e7e7e7" stroke="#e7e7e7" stroke-width="1.51"/><path d="M353,110L220,112L263,209Z" fill="#e1e1e1" stroke="#e1e1e1" stroke-width="1.51"/><path d="M1382,-166L281,-185L668,-163Z" fill="#f0f0f0" stroke="#f0f0f0" stroke-width="1.51"/><path d="M1544,-52L1465,-168L1502,-42Z" fill="#e7e7e7" stroke="#e7e7e7" stroke-width="1.51"/><path d="M1624,-108L1465,-168L1544,-52Z" fill="#e7e7e7" stroke="#e7e7e7" stroke-width="1.51"/><path d="M167,638L175,824L274,693Z" fill="#ebebeb" stroke="#ebebeb" stroke-width="1.51"/><path d="M402,1104L317,1288L488,1246Z" fill="#e3e3e3" stroke="#e3e3e3" stroke-width="1.51"/><path d="M177,460L131,476L167,638Z" fill="#f1f1f1" stroke="#f1f1f1" stroke-width="1.51"/><path d="M263,209L160,332L361,351Z" fill="#e7e7e7" stroke="#e7e7e7" stroke-width="1.51"/><path d="M130,356L160,332L94,245Z" fill="#e8e8e8" stroke="#e8e8e8" stroke-width="1.51"/><path d="M606,-163L479,-140L604,-68Z" fill="#e9e9e9" stroke="#e9e9e9" stroke-width="1.51"/><path d="M1702,169L1704,57L1634,100Z" fill="#e4e4e4" stroke="#e4e4e4" stroke-width="1.51"/><path d="M1837,147L1704,57L1702,169Z" fill="#e3e3e3" stroke="#e3e3e3" stroke-width="1.51"/><path d="M479,-140L389,-66L489,62Z" fill="#e5e5e5" stroke="#e5e5e5" stroke-width="1.51"/><path d="M130,356L131,476L177,460Z" fill="#ededed" stroke="#ededed" stroke-width="1.51"/><path d="M167,638L96,817L175,824Z" fill="#eaeaea" stroke="#eaeaea" stroke-width="1.51"/><path d="M1778,901L1840,780L1726,745Z" fill="#e9e9e9" stroke="#e9e9e9" stroke-width="1.51"/><path d="M1617,1174L1616,1027L1555,1152Z" fill="#e6e6e6" stroke="#e6e6e6" stroke-width="1.51"/><path d="M1956,770L1840,780L1993,927Z" fill="#e9e9e9" stroke="#e9e9e9" stroke-width="1.51"/><path d="M1513,1204L1617,1174L1555,1152Z" fill="#e6e6e6" stroke="#e6e6e6" stroke-width="1.51"/><path d="M1704,57L1686,-3L1634,100Z" fill="#e5e5e5" stroke="#e5e5e5" stroke-width="1.51"/><path d="M1845,22L1686,-3L1704,57Z" fill="#e5e5e5" stroke="#e5e5e5" stroke-width="1.51"/><path d="M160,332L130,356L177,460Z" fill="#ebebeb" stroke="#ebebeb" stroke-width="1.51"/><path d="M94,245L160,332L263,209Z" fill="#e6e6e6" stroke="#e6e6e6" stroke-width="1.51"/><path d="M343,-8L220,112L353,110Z" fill="#e2e2e2" stroke="#e2e2e2" stroke-width="1.51"/><path d="M206,-6L220,112L343,-8Z" fill="#e3e3e3" stroke="#e3e3e3" stroke-width="1.51"/><path d="M1843,456L1877,327L1752,476Z" fill="#ededed" stroke="#ededed" stroke-width="1.51"/><path d="M1918,390L1877,327L1843,456Z" fill="#ececec" stroke="#ececec" stroke-width="1.51"/><path d="M1929,521L1843,456L1855,524Z" fill="#f1f1f1" stroke="#f1f1f1" stroke-width="1.51"/><path d="M175,824L165,928L352,894Z" fill="#e5e5e5" stroke="#e5e5e5" stroke-width="1.51"/><path d="M96,817L165,928L175,824Z" fill="#e7e7e7" stroke="#e7e7e7" stroke-width="1.51"/><path d="M63,522L89,644L167,638Z" fill="#f0f0f0" stroke="#f0f0f0" stroke-width="1.51"/><path d="M63,522L167,638L131,476Z" fill="#f2f2f2" stroke="#f2f2f2" stroke-width="1.51"/><path d="M1686,-3L1624,-108L1544,-52Z" fill="#e6e6e6" stroke="#e6e6e6" stroke-width="1.51"/><path d="M1840,780L1902,697L1781,688Z" fill="#ececec" stroke="#ececec" stroke-width="1.51"/><path d="M1956,770L1902,697L1840,780Z" fill="#ebebeb" stroke="#ebebeb" stroke-width="1.51"/><path d="M165,928L207,1047L352,894Z" fill="#e4e4e4" stroke="#e4e4e4" stroke-width="1.51"/><path d="M28,503L63,522L131,476Z" fill="#f1f1f1" stroke="#f1f1f1" stroke-width="1.51"/><path d="M28,503L131,476L130,356Z" fill="#eeeeee" stroke="#eeeeee" stroke-width="1.51"/><path d="M1902,697L1929,521L1855,524Z" fill="#f1f1f1" stroke="#f1f1f1" stroke-width="1.51"/><path d="M1894,237L1837,147L1701,268Z" fill="#e5e5e5" stroke="#e5e5e5" stroke-width="1.51"/><path d="M1686,-3L1765,-151L1624,-108Z" fill="#e7e7e7" stroke="#e7e7e7" stroke-width="1.51"/><path d="M1894,237L1701,268L1877,327Z" fill="#e7e7e7" stroke="#e7e7e7" stroke-width="1.51"/><path d="M207,1047L283,1162L376,1000Z" fill="#e4e4e4" stroke="#e4e4e4" stroke-width="1.51"/><path d="M89,644L96,817L167,638Z" fill="#ededed" stroke="#ededed" stroke-width="1.51"/><path d="M165,928L147,960L207,1047Z" fill="#e5e5e5" stroke="#e5e5e5" stroke-width="1.51"/><path d="M66,895L96,817L-26,840Z" fill="#e8e8e8" stroke="#e8e8e8" stroke-width="1.51"/><path d="M1929,521L1918,390L1843,456Z" fill="#efefef" stroke="#efefef" stroke-width="1.51"/><path d="M207,1047L215,1144L283,1162Z" fill="#e4e4e4" stroke="#e4e4e4" stroke-width="1.51"/><path d="M66,895L147,960L165,928Z" fill="#e5e5e5" stroke="#e5e5e5" stroke-width="1.51"/><path d="M1714,1238L1732,1146L1617,1174Z" fill="#e6e6e6" stroke="#e6e6e6" stroke-width="1.51"/><path d="M1617,1174L1732,1146L1616,1027Z" fill="#e6e6e6" stroke="#e6e6e6" stroke-width="1.51"/><path d="M1993,927L1840,780L1778,901Z" fill="#e7e7e7" stroke="#e7e7e7" stroke-width="1.51"/><path d="M1714,1238L1617,1174L1513,1204Z" fill="#e6e6e6" stroke="#e6e6e6" stroke-width="1.51"/><path d="M220,112L94,245L263,209Z" fill="#e3e3e3" stroke="#e3e3e3" stroke-width="1.51"/><path d="M1934,315L1894,237L1877,327Z" fill="#e8e8e8" stroke="#e8e8e8" stroke-width="1.51"/><path d="M45,86L2,210L94,245Z" fill="#e4e4e4" stroke="#e4e4e4" stroke-width="1.51"/><path d="M251,-111L206,-6L343,-8Z" fill="#e4e4e4" stroke="#e4e4e4" stroke-width="1.51"/><path d="M251,-111L343,-8L389,-66Z" fill="#e4e4e4" stroke="#e4e4e4" stroke-width="1.51"/><path d="M1918,390L1934,315L1877,327Z" fill="#eaeaea" stroke="#eaeaea" stroke-width="1.51"/><path d="M2049,311L1934,315L1918,390Z" fill="#eaeaea" stroke="#eaeaea" stroke-width="1.51"/><path d="M63,522L28,503L89,644Z" fill="#f2f2f2" stroke="#f2f2f2" stroke-width="1.51"/><path d="M-34,373L28,503L130,356Z" fill="#ededed" stroke="#ededed" stroke-width="1.51"/><path d="M103,1118L215,1144L207,1047Z" fill="#e5e5e5" stroke="#e5e5e5" stroke-width="1.51"/><path d="M283,1162L317,1288L402,1104Z" fill="#e3e3e3" stroke="#e3e3e3" stroke-width="1.51"/><path d="M1902,697L2035,569L1929,521Z" fill="#f0f0f0" stroke="#f0f0f0" stroke-width="1.51"/><path d="M1929,521L2091,418L1918,390Z" fill="#eeeeee" stroke="#eeeeee" stroke-width="1.51"/><path d="M1937,1007L1778,901L1774,951Z" fill="#e6e6e6" stroke="#e6e6e6" stroke-width="1.51"/><path d="M147,960L103,1118L207,1047Z" fill="#e5e5e5" stroke="#e5e5e5" stroke-width="1.51"/><path d="M96,817L66,895L165,928Z" fill="#e7e7e7" stroke="#e7e7e7" stroke-width="1.51"/><path d="M-38,762L96,817L89,644Z" fill="#ececec" stroke="#ececec" stroke-width="1.51"/><path d="M1732,1146L1852,1100L1774,951Z" fill="#e6e6e6" stroke="#e6e6e6" stroke-width="1.51"/><path d="M1789,1279L1714,1238L1513,1204Z" fill="#e6e6e6" stroke="#e6e6e6" stroke-width="1.51"/><path d="M1789,1279L1513,1204L1292,1265Z" fill="#e6e6e6" stroke="#e6e6e6" stroke-width="1.51"/><path d="M281,-185L251,-111L389,-66Z" fill="#e5e5e5" stroke="#e5e5e5" stroke-width="1.51"/><path d="M2,210L0,312L94,245Z" fill="#e7e7e7" stroke="#e7e7e7" stroke-width="1.51"/><path d="M281,-185L389,-66L479,-140Z" fill="#e4e4e4" stroke="#e4e4e4" stroke-width="1.51"/><path d="M213,1185L317,1288L283,1162Z" fill="#e4e4e4" stroke="#e4e4e4" stroke-width="1.51"/><path d="M488,1246L317,1288L536,1263Z" fill="#e4e4e4" stroke="#e4e4e4" stroke-width="1.51"/><path d="M536,1263L317,1288L1155,1284Z" fill="#eaeaea" stroke="#eaeaea" stroke-width="1.51"/><path d="M1857,-11L1845,22L1910,74Z" fill="#e5e5e5" stroke="#e5e5e5" stroke-width="1.51"/><path d="M1910,74L1845,22L1837,147Z" fill="#e4e4e4" stroke="#e4e4e4" stroke-width="1.51"/><path d="M1837,147L1845,22L1704,57Z" fill="#e4e4e4" stroke="#e4e4e4" stroke-width="1.51"/><path d="M215,1144L213,1185L283,1162Z" fill="#e4e4e4" stroke="#e4e4e4" stroke-width="1.51"/><path d="M103,1118L213,1185L215,1144Z" fill="#e5e5e5" stroke="#e5e5e5" stroke-width="1.51"/><path d="M1789,1279L1852,1100L1732,1146Z" fill="#e6e6e6" stroke="#e6e6e6" stroke-width="1.51"/><path d="M-56,701L-38,762L89,644Z" fill="#eeeeee" stroke="#eeeeee" stroke-width="1.51"/><path d="M94,245L0,312L130,356Z" fill="#e8e8e8" stroke="#e8e8e8" stroke-width="1.51"/><path d="M94,245L220,112L45,86Z" fill="#e3e3e3" stroke="#e3e3e3" stroke-width="1.51"/><path d="M45,86L220,112L206,-6Z" fill="#e4e4e4" stroke="#e4e4e4" stroke-width="1.51"/><path d="M606,-163L281,-185L479,-140Z" fill="#e7e7e7" stroke="#e7e7e7" stroke-width="1.51"/><path d="M1465,-168L281,-185L1382,-166Z" fill="#f3f3f3" stroke="#f3f3f3" stroke-width="1.51"/><path d="M1845,22L1857,-11L1686,-3Z" fill="#e5e5e5" stroke="#e5e5e5" stroke-width="1.51"/><path d="M1910,74L1837,147L1894,237Z" fill="#e3e3e3" stroke="#e3e3e3" stroke-width="1.51"/><path d="M2024,178L1910,74L1894,237Z" fill="#e3e3e3" stroke="#e3e3e3" stroke-width="1.51"/><path d="M2067,699L2035,569L1902,697Z" fill="#eeeeee" stroke="#eeeeee" stroke-width="1.51"/><path d="M1934,315L2024,178L1894,237Z" fill="#e6e6e6" stroke="#e6e6e6" stroke-width="1.51"/><path d="M2067,699L1902,697L1956,770Z" fill="#ececec" stroke="#ececec" stroke-width="1.51"/><path d="M1857,-11L1765,-151L1686,-3Z" fill="#e6e6e6" stroke="#e6e6e6" stroke-width="1.51"/><path d="M1624,-108L1767,-177L1465,-168Z" fill="#e8e8e8" stroke="#e8e8e8" stroke-width="1.51"/><path d="M1852,1100L1937,1007L1774,951Z" fill="#e6e6e6" stroke="#e6e6e6" stroke-width="1.51"/><path d="M0,312L-34,373L130,356Z" fill="#ebebeb" stroke="#ebebeb" stroke-width="1.51"/><path d="M45,86L206,-6L137,-82Z" fill="#e5e5e5" stroke="#e5e5e5" stroke-width="1.51"/><path d="M0,312L-93,244L-34,373Z" fill="#eaeaea" stroke="#eaeaea" stroke-width="1.51"/><path d="M-56,701L89,644L28,503Z" fill="#f1f1f1" stroke="#f1f1f1" stroke-width="1.51"/><path d="M31,1107L103,1118L147,960Z" fill="#e6e6e6" stroke="#e6e6e6" stroke-width="1.51"/><path d="M1,965L147,960L66,895Z" fill="#e6e6e6" stroke="#e6e6e6" stroke-width="1.51"/><path d="M213,1185L70,1213L317,1288Z" fill="#e5e5e5" stroke="#e5e5e5" stroke-width="1.51"/><path d="M137,-82L206,-6L251,-111Z" fill="#e5e5e5" stroke="#e5e5e5" stroke-width="1.51"/><path d="M-38,762L-26,840L96,817Z" fill="#eaeaea" stroke="#eaeaea" stroke-width="1.51"/><path d="M-38,762L-92,793L-26,840Z" fill="#ebebeb" stroke="#ebebeb" stroke-width="1.51"/><path d="M-96,669L-56,701L28,503Z" fill="#f1f1f1" stroke="#f1f1f1" stroke-width="1.51"/><path d="M1911,-151L1767,-177L1765,-151Z" fill="#e8e8e8" stroke="#e8e8e8" stroke-width="1.51"/><path d="M1765,-151L1767,-177L1624,-108Z" fill="#e8e8e8" stroke="#e8e8e8" stroke-width="1.51"/><path d="M1465,-168L1767,-177L281,-185Z" fill="#f0f0f0" stroke="#f0f0f0" stroke-width="1.51"/><path d="M1911,-151L1765,-151L1857,-11Z" fill="#e7e7e7" stroke="#e7e7e7" stroke-width="1.51"/><path d="M1937,1007L1993,927L1778,901Z" fill="#e6e6e6" stroke="#e6e6e6" stroke-width="1.51"/><path d="M66,-180L137,-82L251,-111Z" fill="#e7e7e7" stroke="#e7e7e7" stroke-width="1.51"/><path d="M1852,1100L1969,1118L1937,1007Z" fill="#e6e6e6" stroke="#e6e6e6" stroke-width="1.51"/><path d="M1937,1007L2098,963L1993,927Z" fill="#e6e6e6" stroke="#e6e6e6" stroke-width="1.51"/><path d="M1714,1238L1789,1279L1732,1146Z" fill="#e6e6e6" stroke="#e6e6e6" stroke-width="1.51"/><path d="M1155,1284L1789,1279L1292,1265Z" fill="#e8e8e8" stroke="#e8e8e8" stroke-width="1.51"/><path d="M-26,840L1,965L66,895Z" fill="#e7e7e7" stroke="#e7e7e7" stroke-width="1.51"/><path d="M1910,74L1976,-2L1857,-11Z" fill="#e5e5e5" stroke="#e5e5e5" stroke-width="1.51"/><path d="M2091,418L2049,311L1918,390Z" fill="#ebebeb" stroke="#ebebeb" stroke-width="1.51"/><path d="M2077,821L2067,699L1956,770Z" fill="#ebebeb" stroke="#ebebeb" stroke-width="1.51"/><path d="M2035,569L2091,418L1929,521Z" fill="#f1f1f1" stroke="#f1f1f1" stroke-width="1.51"/><path d="M2049,311L2024,178L1934,315Z" fill="#e7e7e7" stroke="#e7e7e7" stroke-width="1.51"/><path d="M-26,840L-79,914L1,965Z" fill="#e8e8e8" stroke="#e8e8e8" stroke-width="1.51"/><path d="M-56,701L-92,793L-38,762Z" fill="#ededed" stroke="#ededed" stroke-width="1.51"/><path d="M-186,588L-96,669L28,503Z" fill="#f3f3f3" stroke="#f3f3f3" stroke-width="1.51"/><path d="M2067,699L2091,418L2035,569Z" fill="#f2f2f2" stroke="#f2f2f2" stroke-width="1.51"/><path d="M2049,311L2059,23L2024,178Z" fill="#e3e3e3" stroke="#e3e3e3" stroke-width="1.51"/><path d="M1,965L31,1107L147,960Z" fill="#e6e6e6" stroke="#e6e6e6" stroke-width="1.51"/><path d="M103,1118L70,1213L213,1185Z" fill="#e5e5e5" stroke="#e5e5e5" stroke-width="1.51"/><path d="M-130,1046L31,1107L1,965Z" fill="#e7e7e7" stroke="#e7e7e7" stroke-width="1.51"/><path d="M-96,669L-92,793L-56,701Z" fill="#eeeeee" stroke="#eeeeee" stroke-width="1.51"/><path d="M2067,699L2088,867L2091,418Z" fill="#eeeeee" stroke="#eeeeee" stroke-width="1.51"/><path d="M1993,927L2077,821L1956,770Z" fill="#e8e8e8" stroke="#e8e8e8" stroke-width="1.51"/><path d="M2088,867L2077,821L1993,927Z" fill="#e7e7e7" stroke="#e7e7e7" stroke-width="1.51"/><path d="M1997,1193L1969,1118L1852,1100Z" fill="#e6e6e6" stroke="#e6e6e6" stroke-width="1.51"/><path d="M2059,23L1910,74L2024,178Z" fill="#e4e4e4" stroke="#e4e4e4" stroke-width="1.51"/><path d="M2059,23L1976,-2L1910,74Z" fill="#e5e5e5" stroke="#e5e5e5" stroke-width="1.51"/><path d="M-34,373L-171,474L28,503Z" fill="#f0f0f0" stroke="#f0f0f0" stroke-width="1.51"/><path d="M2,210L-93,244L0,312Z" fill="#e8e8e8" stroke="#e8e8e8" stroke-width="1.51"/><path d="M-48,89L-93,244L2,210Z" fill="#e5e5e5" stroke="#e5e5e5" stroke-width="1.51"/><path d="M-48,89L2,210L45,86Z" fill="#e4e4e4" stroke="#e4e4e4" stroke-width="1.51"/><path d="M-92,793L-79,914L-26,840Z" fill="#e9e9e9" stroke="#e9e9e9" stroke-width="1.51"/><path d="M-65,1282L70,1213L31,1107Z" fill="#e7e7e7" stroke="#e7e7e7" stroke-width="1.51"/><path d="M31,1107L70,1213L103,1118Z" fill="#e6e6e6" stroke="#e6e6e6" stroke-width="1.51"/><path d="M2077,821L2088,867L2067,699Z" fill="#eaeaea" stroke="#eaeaea" stroke-width="1.51"/><path d="M2098,963L2088,867L1993,927Z" fill="#e6e6e6" stroke="#e6e6e6" stroke-width="1.51"/><path d="M4,-80L-48,89L45,86Z" fill="#e6e6e6" stroke="#e6e6e6" stroke-width="1.51"/><path d="M1976,-2L1911,-151L1857,-11Z" fill="#e6e6e6" stroke="#e6e6e6" stroke-width="1.51"/><path d="M-165,330L-171,474L-34,373Z" fill="#efefef" stroke="#efefef" stroke-width="1.51"/><path d="M-96,669L-186,588L-92,793Z" fill="#f0f0f0" stroke="#f0f0f0" stroke-width="1.51"/><path d="M-188,1060L-130,1046L-79,914Z" fill="#e8e8e8" stroke="#e8e8e8" stroke-width="1.51"/><path d="M-165,330L-34,373L-93,244Z" fill="#ebebeb" stroke="#ebebeb" stroke-width="1.51"/><path d="M2088,867L2098,963L2091,418Z" fill="#ebebeb" stroke="#ebebeb" stroke-width="1.51"/><path d="M2052,1137L2098,963L1937,1007Z" fill="#e6e6e6" stroke="#e6e6e6" stroke-width="1.51"/><path d="M-103,48L-165,330L-93,244Z" fill="#e7e7e7" stroke="#e7e7e7" stroke-width="1.51"/><path d="M137,-82L4,-80L45,86Z" fill="#e6e6e6" stroke="#e6e6e6" stroke-width="1.51"/><path d="M17,-153L4,-80L137,-82Z" fill="#e8e8e8" stroke="#e8e8e8" stroke-width="1.51"/><path d="M-103,48L-93,244L-48,89Z" fill="#e5e5e5" stroke="#e5e5e5" stroke-width="1.51"/><path d="M-165,330L-186,588L-171,474Z" fill="#f2f2f2" stroke="#f2f2f2" stroke-width="1.51"/><path d="M-171,474L-186,588L28,503Z" fill="#f3f3f3" stroke="#f3f3f3" stroke-width="1.51"/><path d="M281,-185L66,-180L251,-111Z" fill="#e7e7e7" stroke="#e7e7e7" stroke-width="1.51"/><path d="M1969,1118L2052,1137L1937,1007Z" fill="#e6e6e6" stroke="#e6e6e6" stroke-width="1.51"/><path d="M1789,1279L1997,1193L1852,1100Z" fill="#e6e6e6" stroke="#e6e6e6" stroke-width="1.51"/><path d="M2091,418L2059,23L2049,311Z" fill="#e6e6e6" stroke="#e6e6e6" stroke-width="1.51"/><path d="M1976,-2L2045,-69L1911,-151Z" fill="#e7e7e7" stroke="#e7e7e7" stroke-width="1.51"/><path d="M1997,1193L2052,1137L1969,1118Z" fill="#e6e6e6" stroke="#e6e6e6" stroke-width="1.51"/><path d="M66,-180L17,-153L137,-82Z" fill="#e8e8e8" stroke="#e8e8e8" stroke-width="1.51"/><path d="M4,-80L-103,48L-48,89Z" fill="#e7e7e7" stroke="#e7e7e7" stroke-width="1.51"/><path d="M-130,-16L-103,48L4,-80Z" fill="#e8e8e8" stroke="#e8e8e8" stroke-width="1.51"/><path d="M2059,23L2045,-69L1976,-2Z" fill="#e6e6e6" stroke="#e6e6e6" stroke-width="1.51"/><path d="M-79,914L-130,1046L1,965Z" fill="#e7e7e7" stroke="#e7e7e7" stroke-width="1.51"/><path d="M-188,1060L-79,914L-92,793Z" fill="#e8e8e8" stroke="#e8e8e8" stroke-width="1.51"/><path d="M1997,1193L1992,1279L2052,1137Z" fill="#e6e6e6" stroke="#e6e6e6" stroke-width="1.51"/><path d="M1789,1279L1992,1279L1997,1193Z" fill="#e6e6e6" stroke="#e6e6e6" stroke-width="1.51"/><path d="M1155,1284L1992,1279L1789,1279Z" fill="#e6e6e6" stroke="#e6e6e6" stroke-width="1.51"/><path d="M-87,-163L-130,-16L4,-80Z" fill="#e8e8e8" stroke="#e8e8e8" stroke-width="1.51"/><path d="M-103,48L-130,-16L-165,330Z" fill="#e6e6e6" stroke="#e6e6e6" stroke-width="1.51"/><path d="M-130,1046L-65,1282L31,1107Z" fill="#e7e7e7" stroke="#e7e7e7" stroke-width="1.51"/><path d="M70,1213L-65,1282L317,1288Z" fill="#e6e6e6" stroke="#e6e6e6" stroke-width="1.51"/><path d="M-130,1046L-181,1263L-65,1282Z" fill="#e8e8e8" stroke="#e8e8e8" stroke-width="1.51"/><path d="M-186,588L-188,1060L-92,793Z" fill="#ececec" stroke="#ececec" stroke-width="1.51"/><path d="M17,-153L-87,-163L4,-80Z" fill="#e9e9e9" stroke="#e9e9e9" stroke-width="1.51"/><path d="M66,-180L-87,-163L17,-153Z" fill="#e9e9e9" stroke="#e9e9e9" stroke-width="1.51"/><path d="M2045,-69L2110,-134L1911,-151Z" fill="#e7e7e7" stroke="#e7e7e7" stroke-width="1.51"/><path d="M1911,-151L2110,-134L1767,-177Z" fill="#e8e8e8" stroke="#e8e8e8" stroke-width="1.51"/><path d="M2059,23L2110,-134L2045,-69Z" fill="#e6e6e6" stroke="#e6e6e6" stroke-width="1.51"/><path d="M2091,418L2110,-134L2059,23Z" fill="#e4e4e4" stroke="#e4e4e4" stroke-width="1.51"/><path d="M2098,963L2110,-134L2091,418Z" fill="#ededed" stroke="#ededed" stroke-width="1.51"/><path d="M-188,1060L-181,1263L-130,1046Z" fill="#e8e8e8" stroke="#e8e8e8" stroke-width="1.51"/></svg>