<?xml version="1.0" encoding="UTF-8"?>
<svg width="999px" height="319px" viewBox="0 0 999 319" version="1.1" xmlns="http://www.w3.org/2000/svg" xmlns:xlink="http://www.w3.org/1999/xlink">
    <title>linku</title>
    <defs></defs>
    <g id="Page-1" stroke="none" stroke-width="1" fill="none" fill-rule="evenodd">
        <g id="Linku" transform="translate(0.000000, -340.000000)" fill-rule="nonzero" fill="#FFFFFF">
            <g id="linku" transform="translate(0.000000, 340.000000)">
                <path d="M928.125,107.447154 L928.125,256.728455 L857.8125,256.728455 L857.8125,107.447154 L787.5,107.447154 L787.5,318.178862 L928.125,318.178862 C966.957521,318.178862 998.4375,286.729595 998.4375,247.934959 L998.4375,107.447154 L928.125,107.447154 Z" id="Shape" opacity="0.66"></path>
                <polygon id="Shape" points="675.286458 107.447154 642.734375 153.886179 611.71875 198.139837 611.71875 0 541.40625 18.7317073 541.40625 318.178862 611.71875 318.178862 611.71875 232.117073 642.734375 276.344715 672.057292 318.178862 757.890625 318.178862 685.651042 215.128455 761.119792 107.447154"></polygon>
                <ellipse id="Oval" cx="215.625" cy="37.203252" rx="37.2395833" ry="37.203252"></ellipse>
                <path d="M180.46875,107.447154 L250.78125,107.447154 L250.78125,318.178862 L180.46875,318.178862 L180.46875,107.447154 Z M140.625,256.702439 L140.625,318.178862 L70.3125,318.178862 C31.4799785,318.178862 4.75561231e-15,286.729595 0,247.934959 L0,18.7317073 L70.3125,0 L70.3125,256.702439 L140.625,256.702439 Z M431.25,107.447154 L290.625,107.447154 L290.625,318.178862 L360.9375,318.178862 L360.9375,168.923577 L431.25,168.923577 L431.25,318.178862 L501.5625,318.178862 L501.5625,177.691057 C501.5625,138.896421 470.082521,107.447154 431.25,107.447154 Z" id="Shape"></path>
            </g>
        </g>
    </g>
</svg>